<svg id="Layer_1" data-name="Layer 1" xmlns="http://www.w3.org/2000/svg" viewBox="0 0 261.18 400.43"><defs><style>.cls-1{fill:#231f20;}</style></defs><path class="cls-1" d="M2402.73,572a6.23,6.23,0,0,0,0,12.46,26.06,26.06,0,0,1,26,26V693a6.23,6.23,0,0,0,12.46,0V610.46A38.54,38.54,0,0,0,2402.73,572Z" transform="translate(-2206.65 -395.98)"/><path class="cls-1" d="M2337.23,607.38a40.17,40.17,0,0,0-22.91,73.25v30.86a22.92,22.92,0,1,0,45.83,0V680.63a40.17,40.17,0,0,0-22.92-73.25Zm13.61,64.4a6.22,6.22,0,0,0-3.15,5.42v34.29a10.46,10.46,0,1,1-20.91,0V677.2a6.23,6.23,0,0,0-3.16-5.42,27.83,27.83,0,1,1,27.22,0Z" transform="translate(-2206.65 -395.98)"/><path class="cls-1" d="M2436,552.81v-58.1a98.73,98.73,0,0,0-197.46,0v58.11a58.39,58.39,0,0,0-31.86,51.95V738.08A58.41,58.41,0,0,0,2265,796.41h144.48a58.4,58.4,0,0,0,58.34-58.33V604.77A58.39,58.39,0,0,0,2436,552.81Zm-185-58.1a86.27,86.27,0,1,1,172.53,0v53.43a58.3,58.3,0,0,0-14-1.71h-4.56V494.71a67.7,67.7,0,1,0-135.39,0v51.72H2265a58.05,58.05,0,0,0-14,1.72Zm141.5,51.72H2282V494.71a55.24,55.24,0,0,1,110.47,0Zm62.9,191.65A45.93,45.93,0,0,1,2409.49,784H2265a45.94,45.94,0,0,1-45.9-45.87V604.77a45.94,45.94,0,0,1,45.9-45.88h144.48a45.93,45.93,0,0,1,45.88,45.88Z" transform="translate(-2206.65 -395.98)"/></svg>